<svg width="60" height="60" viewBox="0 0 60 60" fill="none" xmlns="http://www.w3.org/2000/svg">
<path d="M53.7067 43.2911C53.543 43.1275 53.3277 43.0258 53.0974 43.0033C52.8672 42.9808 52.6362 43.0388 52.4439 43.1674C52.2516 43.2961 52.1099 43.4874 52.0429 43.7089C51.9759 43.9303 51.9877 44.1681 52.0764 44.3818C52.165 44.5955 52.3251 44.7719 52.5292 44.8808C52.7333 44.9897 52.9689 45.0245 53.1958 44.9792C53.4227 44.9339 53.6268 44.8113 53.7735 44.6323C53.9201 44.4534 54.0002 44.2291 54 43.9977C53.9988 43.7328 53.8935 43.479 53.7067 43.2911Z" fill="white"/>
<path d="M40.6741 30.8012V28.5558C40.6817 26.7001 40.3379 24.8612 39.6627 23.1462C38.9874 21.4312 37.9942 19.8741 36.7407 18.5656L34.5313 16.2462C34.3565 16.0814 34.1282 15.9932 33.8933 15.9999C33.6585 16.0065 33.435 16.1074 33.2689 16.2818C33.1027 16.4561 33.0066 16.6908 33.0003 16.9373C32.994 17.1839 33.078 17.4235 33.235 17.607L35.4444 19.9264C36.5267 21.0561 37.3842 22.4004 37.9673 23.8811C38.5503 25.3618 38.8472 26.9494 38.8407 28.5516V31.1967C38.841 31.4519 38.9377 31.6966 39.1097 31.8771L49.4687 42.7519C49.6435 42.9167 49.8718 43.0048 50.1067 42.9982C50.3415 42.9916 50.565 42.8907 50.7311 42.7163C50.8973 42.5419 50.9934 42.3073 50.9997 42.0608C51.006 41.8142 50.922 41.5745 50.765 41.391L40.6741 30.8012Z" fill="white"/>
<path d="M30.6413 40.4264C30.4642 40.2508 30.224 40.1521 29.9735 40.1518L25.9569 40.1576H25.9402C23.5703 40.1602 21.2536 39.4619 19.2867 38.1522L13.3703 34.2234C12.9945 33.9709 12.7329 33.5833 12.6412 33.1428C12.5494 32.7023 12.6346 32.2437 12.8788 31.8645C13.1229 31.4853 13.5067 31.2154 13.9486 31.1122C14.3905 31.0089 14.8556 31.0805 15.245 31.3117L17.8009 32.8473C18.0801 33.0127 18.4106 33.0714 18.7304 33.0124C19.0502 32.9535 19.3373 32.781 19.5378 32.5272C19.7383 32.2734 19.8384 31.9559 19.8194 31.6342C19.8004 31.3125 19.6635 31.0087 19.4344 30.7799L8.38453 19.836C8.06815 19.5359 7.88211 19.1256 7.86582 18.692C7.84953 18.2584 8.00428 17.8355 8.29728 17.513C8.59027 17.1905 8.9985 16.9936 9.43547 16.9641C9.87245 16.9347 10.3038 17.0749 10.6382 17.3551L19.3743 25.9968C19.5544 26.157 19.7897 26.2428 20.0316 26.2363C20.2736 26.2299 20.5038 26.1318 20.675 25.9622C20.8462 25.7927 20.9452 25.5646 20.9517 25.3248C20.9581 25.0851 20.8716 24.8521 20.7099 24.6737L9.75596 13.8364C9.43994 13.5231 9.26249 13.0983 9.26265 12.6553C9.2628 12.2124 9.44055 11.7877 9.75679 11.4746C10.073 11.1615 10.5019 10.9857 10.9489 10.9859C11.396 10.986 11.8247 11.1621 12.1407 11.4754L23.088 22.3202C23.1738 22.4148 23.2782 22.4912 23.3948 22.5446C23.5115 22.598 23.6378 22.6273 23.7662 22.6307C23.8947 22.6341 24.0224 22.6116 24.1418 22.5645C24.2611 22.5173 24.3695 22.4466 24.4603 22.3566C24.5512 22.2666 24.6225 22.1592 24.6701 22.041C24.7177 21.9228 24.7404 21.7962 24.737 21.669C24.7335 21.5418 24.704 21.4166 24.6501 21.301C24.5962 21.1855 24.5191 21.0821 24.4235 20.997L15.6958 12.3471C15.4129 12.0157 15.2714 11.5884 15.3011 11.1555C15.3309 10.7225 15.5296 10.3181 15.8551 10.0278C16.1807 9.73756 16.6075 9.58425 17.0452 9.60038C17.4829 9.61652 17.897 9.80083 18.1999 10.1143L24.5846 16.4521L26.8058 18.6394C26.9859 18.7996 27.2211 18.8853 27.4631 18.8789C27.705 18.8725 27.9353 18.7744 28.1064 18.6048C28.2776 18.4352 28.3766 18.2071 28.3831 17.9674C28.3896 17.7277 28.3031 17.4946 28.1413 17.3162L21.3585 10.5931C21.0756 10.2618 20.9341 9.83439 20.9638 9.40148C20.9936 8.96856 21.1923 8.56413 21.5178 8.27386C21.8434 7.98358 22.2702 7.83027 22.7079 7.84641C23.1456 7.86254 23.5597 8.04685 23.8626 8.36029L28.062 12.5207C28.2421 12.6809 28.4774 12.7667 28.7193 12.7602C28.9613 12.7538 29.1915 12.6557 29.3627 12.4862C29.5338 12.3166 29.6329 12.0885 29.6393 11.8488C29.6458 11.609 29.5593 11.376 29.3976 11.1976L25.199 7.03716C24.761 6.60378 24.2171 6.29033 23.6204 6.12742C23.0236 5.9645 22.3944 5.9577 21.7942 6.10767C21.194 6.25764 20.6433 6.55925 20.1959 6.98306C19.7485 7.40686 19.4197 7.93837 19.2416 8.52569C18.7859 8.16373 18.2477 7.91792 17.6739 7.80977C17.1002 7.70161 16.5084 7.7344 15.9504 7.90526C15.3924 8.07613 14.8851 8.37987 14.473 8.7899C14.0609 9.19994 13.7565 9.70377 13.5865 10.2573L13.4779 10.1498C13.1472 9.81456 12.7526 9.54764 12.317 9.36453C11.8814 9.18142 11.4135 9.08576 10.9403 9.08309C10.4671 9.08041 9.99813 9.17079 9.56046 9.34897C9.12279 9.52715 8.72515 9.78959 8.39059 10.1211C8.05602 10.4526 7.79118 10.8466 7.6114 11.2802C7.43162 11.7139 7.34048 12.1785 7.34325 12.6473C7.34603 13.1161 7.44266 13.5797 7.62756 14.0112C7.81246 14.4427 8.08195 14.8336 8.42042 15.1612L8.52643 15.2662C7.93674 15.4459 7.40396 15.7736 6.9798 16.2174C6.55565 16.6613 6.25454 17.2063 6.1057 17.7994C5.95686 18.3926 5.96534 19.0138 6.13033 19.6028C6.29531 20.1917 6.6112 20.7284 7.04732 21.1608L15.2717 29.3079C14.5522 29.121 13.7922 29.1566 13.0937 29.4097C12.3952 29.663 11.7915 30.1217 11.3636 30.7245C11.0863 31.1169 10.8908 31.5601 10.7885 32.0283C10.6862 32.4964 10.6793 32.9801 10.7681 33.4509C10.8568 33.9218 11.0395 34.3703 11.3055 34.7704C11.5714 35.1704 11.9153 35.5138 12.3169 35.7805L18.2308 39.7094C20.5154 41.2284 23.2055 42.0372 25.9569 42.0323L29.5812 42.0274L41.3507 53.6875C41.4365 53.7821 41.5409 53.8585 41.6575 53.9119C41.7741 53.9653 41.9005 53.9946 42.0289 53.998C42.1573 54.0014 42.2851 53.9789 42.4044 53.9318C42.5238 53.8846 42.6322 53.8139 42.723 53.7239C42.8138 53.6339 42.8852 53.5265 42.9328 53.4083C42.9803 53.2901 43.0031 53.1635 42.9997 53.0363C42.9962 52.9091 42.9666 52.7839 42.9127 52.6683C42.8589 52.5528 42.7818 52.4494 42.6862 52.3643L30.6413 40.4264Z" fill="white"/>
<path d="M30.9985 15.9995C31.2299 15.9999 31.4543 15.9199 31.6334 15.7733C31.8125 15.6268 31.9352 15.4226 31.9806 15.1957C32.026 14.9687 31.9913 14.7331 31.8823 14.5289C31.7734 14.3247 31.5971 14.1646 31.3833 14.0759C31.1696 13.9872 30.9317 13.9754 30.7102 14.0424C30.4887 14.1095 30.2973 14.2513 30.1687 14.4437C30.0401 14.6361 29.9821 14.8672 30.0048 15.0975C30.0275 15.3278 30.1294 15.5431 30.293 15.7067C30.4805 15.8933 30.734 15.9985 30.9985 15.9995Z" fill="white"/>
</svg>
