<svg width="60" height="60" viewBox="0 0 60 60" fill="none" xmlns="http://www.w3.org/2000/svg">
<path d="M50.9479 20.3689C47.7979 13.7627 43.1074 9.53116 37.3894 8.13044C35.1784 7.59131 33.6792 8.85247 32.4762 9.8683C31.6122 10.5969 30.8659 11.2272 30.0012 11.2272C28.9992 11.2272 28.2364 10.6116 27.3492 9.89768C26.0817 8.87303 24.4992 7.59792 21.8539 8.12162C16.2491 9.22339 11.7289 13.3712 8.77389 20.1243C7.42532 23.2711 6.4952 26.5746 6.00638 29.9536C5.99567 30.0394 5.99846 30.1264 6.01463 30.2114C6.92651 34.0677 8.48896 37.7479 10.6376 41.1006C13.8694 46.0725 19.8521 52 30.0012 52C40.1502 52 46.1322 46.0725 49.3632 41.1006C51.5117 37.7476 53.0739 34.0671 53.9854 30.2107C54.0029 30.1171 54.0047 30.0213 53.9907 29.9271C53.4062 26.6248 52.3833 23.4115 50.9479 20.3689ZM16.3571 22.2478C16.3571 22.6374 16.1991 23.0111 15.9178 23.2866C15.6365 23.5621 15.255 23.7168 14.8571 23.7168H13.2154C14.2052 22.7593 15.255 21.8632 16.3586 21.0336L16.3571 22.2478ZM18.1377 22.2478V19.7989C19.5817 18.8665 21.1222 18.0861 22.7337 17.4705V22.2449C22.7337 22.6345 22.5756 23.0081 22.2943 23.2836C22.013 23.5591 21.6315 23.7139 21.2336 23.7139H19.6392C19.2416 23.7143 18.8601 23.5601 18.5786 23.2852C18.297 23.0103 18.1384 22.6372 18.1377 22.2478ZM41.8617 19.7989V22.2478C41.8617 22.6374 41.7037 23.0111 41.4224 23.2866C41.141 23.5621 40.7595 23.7168 40.3617 23.7168H38.7679C38.3701 23.7168 37.9886 23.5621 37.7073 23.2866C37.426 23.0111 37.2679 22.6374 37.2679 22.2478V17.4735C38.8786 18.0874 40.4184 18.8664 41.8617 19.7975V19.7989ZM35.4867 16.8814V22.2478C35.4867 22.6374 35.3286 23.0111 35.0473 23.2866C34.766 23.5621 34.3845 23.7168 33.9867 23.7168H32.3922C31.9943 23.7168 31.6128 23.5621 31.3315 23.2866C31.0502 23.0111 30.8922 22.6374 30.8922 22.2478V16.1352C32.448 16.2061 33.9898 16.4561 35.4859 16.88L35.4867 16.8814ZM29.1117 16.1352V22.2478C29.1117 22.6374 28.9536 23.0111 28.6723 23.2866C28.391 23.5621 28.0095 23.7168 27.6117 23.7168H26.0172C25.6193 23.7168 25.2378 23.5621 24.9565 23.2866C24.6752 23.0111 24.5172 22.6374 24.5172 22.2478V16.8814C26.0125 16.4558 27.5539 16.2048 29.1094 16.1337L29.1117 16.1352ZM46.7907 23.7168H45.1407C44.7429 23.7168 44.3613 23.5621 44.08 23.2866C43.7987 23.0111 43.6407 22.6374 43.6407 22.2478V21.027C44.5743 21.7278 45.4698 22.4761 46.3234 23.2688C46.4802 23.4135 46.6347 23.564 46.7907 23.7168ZM49.5439 24.0048C48.8884 23.2945 48.2179 22.6209 47.5504 22.0047C46.2147 20.7578 44.778 19.6191 43.2544 18.5995C41.2201 17.2276 38.9961 16.1473 36.6499 15.3911C32.3299 14.0002 27.6687 14.0002 23.3487 15.3911C21.0042 16.1474 18.7818 17.2272 16.7486 18.598C14.4414 20.1489 12.3306 21.9629 10.4606 24.0018C9.81638 24.6945 9.18563 25.4187 8.59163 26.1605C10.0564 20.5885 13.7186 11.4945 22.2087 9.83231C24.0312 9.47534 25.0437 10.2943 26.2227 11.2448C27.2217 12.0528 28.3534 12.9716 30.0004 12.9716C31.5229 12.9716 32.6434 12.0285 33.6387 11.1897C34.7104 10.2855 35.6352 9.50472 36.9589 9.82276C42.2014 11.1067 46.3602 14.8909 49.3189 21.0718C50.0594 22.6326 50.686 24.2427 51.1939 25.8902C50.6329 25.2138 50.0915 24.5938 49.5432 24.004L49.5439 24.0048ZM14.8571 25.4613C15.3069 25.46 15.7516 25.3675 16.1631 25.1896C16.5746 25.0117 16.944 24.7524 17.2481 24.4278C17.5525 24.7523 17.9221 25.0116 18.3337 25.1895C18.7453 25.3673 19.19 25.4599 19.6399 25.4613H21.2344C21.6843 25.4599 22.129 25.3673 22.5406 25.1895C22.9522 25.0116 23.3218 24.7523 23.6262 24.4278C23.9302 24.7524 24.2997 25.0119 24.7112 25.1897C25.1227 25.3676 25.5674 25.4601 26.0172 25.4613H27.6117C28.0614 25.46 28.5061 25.3675 28.9176 25.1896C29.3291 25.0117 29.6985 24.7524 30.0027 24.4278C30.307 24.7523 30.6766 25.0116 31.0882 25.1895C31.4998 25.3673 31.9445 25.4599 32.3944 25.4613H33.9889C34.4387 25.46 34.8834 25.3675 35.2949 25.1896C35.7064 25.0117 36.0758 24.7524 36.3799 24.4278C36.6843 24.7523 37.0539 25.0116 37.4655 25.1895C37.8771 25.3673 38.3218 25.4599 38.7717 25.4613H40.3654C40.8155 25.46 41.2603 25.3675 41.6721 25.1896C42.0838 25.0118 42.4535 24.7524 42.7579 24.4278C43.0621 24.7524 43.4315 25.0117 43.843 25.1896C44.2545 25.3675 44.6992 25.46 45.1489 25.4613H48.4887C49.8023 26.8992 51.0004 28.4345 52.0722 30.0535C51.7489 30.5485 51.0972 31.5041 50.1454 32.6889C46.5919 31.0419 42.7219 30.1522 38.7912 30.0784C35.7228 30.0415 32.6948 30.7656 29.9892 32.1836C21.2052 27.8154 12.4316 31.4028 9.83813 32.6728C8.91413 31.5108 8.26313 30.5544 7.93763 30.0557C9.00957 28.4356 10.2084 26.8995 11.5234 25.4613H14.8571ZM13.6781 36.8352C12.7355 35.955 11.84 35.0276 10.9954 34.0566C13.9909 32.6566 21.5096 29.9683 29.1117 33.7114V41.0726H30.8937V33.6923C33.3049 32.4193 39.7849 29.9896 48.974 34.0786C44.9704 38.6326 38.4522 44.0114 29.9989 44.0114C22.8821 44.0122 17.1941 40.109 13.6781 36.8352ZM12.4549 38.1001C17.8339 43.108 23.9014 45.7552 30.0049 45.7552C39.8299 45.7552 47.0547 39.124 50.684 34.8587C49.9426 36.7059 49.0295 38.4826 47.9562 40.1663C43.6347 46.8614 37.5957 50.2555 30.0042 50.2555C22.4127 50.2555 16.3736 46.8614 12.0529 40.1663C10.969 38.4661 10.0486 36.671 9.30338 34.8043C10.2885 35.9604 11.34 37.0608 12.4526 38.1001H12.4549Z" fill="white"/>
</svg>
