<svg width="64" height="44" viewBox="0 0 64 44" fill="none" xmlns="http://www.w3.org/2000/svg">
<g clip-path="url(#clip0_127_4946)">
<path d="M3.41856 7.38001L5.28672 20.1951L7.13534 7.38001H10.1964V24.2026H8.36734V9.08105L6.24067 24.2026H4.25272L2.00689 9.08105V24.2026H0.238335V7.38001H3.41856Z" fill="white"/>
<path d="M14.7064 7.38001V24.2026H12.7386V7.38001H14.7064Z" fill="white"/>
<path d="M23.2131 10.3855V11.9H21.3449V10.735C21.3449 9.33699 20.8279 9.08045 20.2321 9.08045C19.3765 9.08045 19.0196 9.68408 19.0196 10.898C19.0196 12.1566 19.4175 12.925 20.7686 14.6031C22.7957 17.1196 23.3726 17.888 23.3726 20.2169C23.3726 23.1294 22.2995 24.3644 20.053 24.3644C18.2246 24.3644 17.0714 23.2459 17.0714 21.3589V19.3319H18.9995V20.5434C18.9995 21.9414 19.3569 22.4751 20.2119 22.4751C21.1658 22.4751 21.4842 21.7996 21.4842 20.471C21.4842 19.1424 21.0668 18.3275 19.8746 16.9059C17.9862 14.6459 17.0922 13.5039 17.0922 11.1044C17.0922 8.56494 18.205 7.25989 20.2699 7.25989C22.1791 7.26351 23.2131 8.45207 23.2131 10.3855Z" fill="white"/>
<path d="M31.699 10.3855V11.9H29.8308V10.735C29.8308 9.33699 29.3138 9.08045 28.718 9.08045C27.8624 9.08045 27.5055 9.68408 27.5055 10.898C27.5055 12.1566 27.9033 12.925 29.2545 14.6031C31.2816 17.1196 31.8585 17.888 31.8585 20.2169C31.8585 23.1294 30.7853 24.3644 28.5395 24.3644C26.7111 24.3644 25.5579 23.2459 25.5579 21.3589V19.3319H27.486V20.5434C27.486 21.9414 27.8441 22.4751 28.6984 22.4751C29.6523 22.4751 29.9701 21.7996 29.9701 20.471C29.9701 19.1424 29.5527 18.3275 28.3605 16.9059C26.4721 14.6459 25.5781 13.5039 25.5781 11.1044C25.5781 8.56494 26.6909 7.25989 28.7558 7.25989C30.6649 7.26351 31.699 8.45207 31.699 10.3855Z" fill="white"/>
<path d="M40.92 11.1545V20.3581C40.92 22.9912 39.8469 24.3892 37.5216 24.3892C35.2758 24.3892 34.2021 23.1541 34.2021 20.1716V11.6217C34.2021 8.75569 35.3149 7.21522 37.6206 7.21522C39.8665 7.21522 40.92 8.73154 40.92 11.1545ZM36.1497 11.6441V20.4281C36.1497 21.6396 36.6269 22.5952 37.5607 22.5952C38.4945 22.5952 38.9718 21.6632 38.9718 20.241V11.7606C38.9718 9.87362 38.4945 9.10459 37.5607 9.10459C36.5872 9.10459 36.1497 10.1531 36.1497 11.6441Z" fill="white"/>
<path d="M45.471 7.38001V20.6147C45.471 21.8726 45.9281 22.4787 46.8625 22.4787C48.2136 22.4787 48.2338 21.3837 48.2338 20.1951V7.38001H50.2211V20.3116C50.2211 22.9211 49.0881 24.3192 46.8026 24.3192C44.4192 24.3192 43.4836 22.8046 43.4836 20.9171V7.38001H45.471Z" fill="white"/>
<path d="M56.0242 7.38001C58.9661 7.38001 59.0456 8.73154 59.0456 12.1566C59.0456 14.2536 58.7278 15.2785 57.1774 15.791C58.4497 16.024 58.946 16.7695 58.946 18.4241V22.3851C58.9368 22.9947 58.9901 23.6036 59.1048 24.2026H57.2165C57.0696 23.7997 57.0022 23.3727 57.0179 22.9447V18.6106C57.0179 17.1661 56.5803 16.7701 55.5274 16.7701H54.7721V24.2026H52.8043V7.38001H56.0242ZM54.7721 14.8361H55.3685C56.8395 14.8361 57.0973 14.463 57.0973 12.1566C57.0973 9.56999 56.9385 9.36053 55.7462 9.36053H54.7721V14.8361Z" fill="white"/>
<path d="M63.5562 7.38001V24.2026H61.5884V7.38001H63.5562Z" fill="white"/>
<path d="M1.86694 28.2766C2.11516 28.2656 2.36339 28.2979 2.60028 28.372C2.83492 28.4543 3.03619 28.6096 3.17383 28.8145C3.31147 29.0195 3.37804 29.2631 3.36355 29.5086C3.37155 29.719 3.32075 29.9275 3.21673 30.1113C3.1127 30.295 2.95948 30.447 2.77383 30.5505C2.40597 30.6972 2.00746 30.7534 1.61272 30.714C1.43428 30.714 1.25522 30.7195 1.08228 30.7195V32.0939H0V28.2772L1.86694 28.2766ZM1.59622 29.9897C1.94272 29.9897 2.07778 29.9154 2.16945 29.8044C2.23696 29.7086 2.2695 29.593 2.26172 29.4766C2.26172 29.1597 2.08328 28.9846 1.62861 28.9846H1.08778V29.9891L1.59622 29.9897Z" fill="white"/>
<path d="M9.07133 30.2004C9.09089 30.468 9.05144 30.7367 8.95569 30.9879C8.85994 31.239 8.71018 31.4667 8.51672 31.6551C8.32327 31.8436 8.09073 31.9884 7.83515 32.0794C7.57957 32.1705 7.30703 32.2057 7.03633 32.1827C6.7673 32.2059 6.49638 32.1707 6.24255 32.0796C5.98871 31.9886 5.75809 31.8439 5.56681 31.6555C5.37553 31.4672 5.22823 31.2399 5.13519 30.9895C5.04216 30.7391 5.00565 30.4716 5.02822 30.2058C5.01147 29.9172 5.05628 29.6284 5.15977 29.358C5.26326 29.0876 5.4231 28.8418 5.62894 28.6363C6.05014 28.3172 6.57063 28.1529 7.10111 28.1715C7.3723 28.1516 7.6446 28.1911 7.89854 28.2872C8.15248 28.3833 8.38178 28.5337 8.57003 28.7275C8.75828 28.9214 8.90084 29.1539 8.9875 29.4085C9.07416 29.6632 9.10279 29.9335 9.07133 30.2004ZM7.04733 31.4076C7.65355 31.4076 7.95116 30.9694 7.95116 30.1816C7.95116 29.4259 7.70244 28.9394 7.04733 28.9394C6.46311 28.9394 6.1435 29.3571 6.1435 30.1973C6.14411 30.9827 6.44722 31.4058 7.04794 31.4058L7.04733 31.4076Z" fill="white"/>
<path d="M12.0615 28.2766V32.0933H10.9468V28.2766H12.0615Z" fill="white"/>
<path d="M17.2584 29.3758V29.3969H16.1584V29.3758C16.1676 29.3065 16.1604 29.236 16.1375 29.1699C16.1145 29.1038 16.0764 29.0439 16.0261 28.9947C15.9758 28.9456 15.9147 28.9086 15.8475 28.8866C15.7804 28.8646 15.709 28.8583 15.6389 28.8681C15.3303 28.8681 15.1299 29.0426 15.1299 29.2701C15.1299 29.4657 15.2325 29.5871 15.5412 29.6661L16.2611 29.8472C16.4869 29.8942 16.7054 29.9707 16.9107 30.0748C17.0679 30.1584 17.1971 30.2854 17.2826 30.4402C17.3681 30.5951 17.4062 30.7712 17.3922 30.947C17.3922 31.7402 16.7316 32.1785 15.6658 32.1785C14.5561 32.1785 13.9504 31.7396 13.9504 30.8782H15.0382C15.0382 31.2694 15.2655 31.4704 15.6927 31.4704C16.0447 31.4704 16.2769 31.3328 16.2769 31.037C16.2788 30.9483 16.2471 30.862 16.1882 30.7951C16.1292 30.7282 16.0471 30.6853 15.9579 30.6748L14.9673 30.4213C14.8042 30.3977 14.6478 30.3408 14.5081 30.2544C14.3684 30.1679 14.2484 30.0537 14.1558 29.9191C14.0584 29.7561 14.0097 29.5692 14.0152 29.38C14.0152 28.6611 14.6214 28.1854 15.6603 28.1854C16.7279 28.1812 17.2584 28.5669 17.2584 29.3758Z" fill="white"/>
<path d="M23.1923 30.2004C23.2118 30.468 23.1724 30.7367 23.0766 30.9879C22.9809 31.239 22.8311 31.4667 22.6377 31.6551C22.4442 31.8436 22.2117 31.9884 21.9561 32.0794C21.7005 32.1705 21.428 32.2057 21.1573 32.1827C20.8882 32.2059 20.6173 32.1707 20.3635 32.0796C20.1097 31.9886 19.879 31.8439 19.6878 31.6555C19.4965 31.4672 19.3492 31.2399 19.2561 30.9895C19.1631 30.7391 19.1266 30.4716 19.1492 30.2058C19.1324 29.9172 19.1772 29.6284 19.2807 29.358C19.3842 29.0876 19.5441 28.8418 19.7499 28.6363C20.1711 28.3172 20.6916 28.1529 21.2221 28.1715C21.4932 28.1516 21.7655 28.1911 22.0195 28.2872C22.2734 28.3833 22.5027 28.5337 22.691 28.7275C22.8792 28.9214 23.0218 29.1539 23.1084 29.4085C23.1951 29.6632 23.2237 29.9335 23.1923 30.2004ZM21.1683 31.4076C21.7745 31.4076 22.0721 30.9694 22.0721 30.1816C22.0721 29.4259 21.8234 28.9394 21.1683 28.9394C20.5841 28.9394 20.2644 29.3571 20.2644 30.1973C20.2638 30.9827 20.5676 31.4058 21.1677 31.4058L21.1683 31.4076Z" fill="white"/>
<path d="M26.598 28.2766L27.9186 31.1203L27.9076 28.2766H28.8548V32.0933H27.3937L26.0462 29.1253L26.0572 32.0909H25.1075V28.2742L26.598 28.2766Z" fill="white"/>
<path d="M36.5005 29.4766C36.4946 29.4006 36.4735 29.3265 36.4384 29.2586C36.4033 29.1908 36.3549 29.1305 36.296 29.0813C36.2371 29.032 36.1688 28.9949 36.0952 28.972C36.0216 28.9491 35.9442 28.9409 35.8673 28.9478C35.31 28.9478 35.0118 29.3758 35.0118 30.2269C35.0118 31.0116 35.3039 31.4269 35.8557 31.4269C35.9363 31.4366 36.0181 31.4296 36.0958 31.4063C36.1736 31.3831 36.2455 31.3441 36.3072 31.2918C36.3688 31.2396 36.4187 31.1752 36.4538 31.1029C36.4889 31.0305 36.5083 30.9518 36.5108 30.8716H37.6365C37.631 31.7167 36.9814 32.1664 35.8722 32.1664C35.6046 32.1973 35.3334 32.168 35.0789 32.0807C34.8243 31.9934 34.5931 31.8503 34.4026 31.6621C34.212 31.4739 34.0671 31.2456 33.9786 30.9942C33.8901 30.7428 33.8604 30.4749 33.8916 30.2106C33.8525 29.8147 33.9435 29.417 34.1511 29.0762C34.3587 28.7353 34.6718 28.4696 35.0442 28.3182C35.3111 28.2313 35.5912 28.1904 35.8722 28.1975C37.0034 28.1975 37.6096 28.71 37.6151 29.4766H36.5005Z" fill="white"/>
<path d="M42.4716 28.2868V29.0166H40.6095V29.8092H42.3634V30.539H40.6095V31.3527H42.515V32.0927H39.5383V28.2899L42.4716 28.2868Z" fill="white"/>
<path d="M45.9311 28.2766L47.2517 31.1203L47.2407 28.2766H48.1879V32.0933H46.7268L45.3793 29.1253L45.3903 32.0909H44.4376V28.2742L45.9311 28.2766Z" fill="white"/>
<path d="M53.4398 28.2766V29.0323H52.2225V32.0927H51.1292V29.0323H49.9382V28.2766H53.4398Z" fill="white"/>
<path d="M58.1026 28.2868V29.0166H56.2412V29.8092H57.9951V30.539H56.2412V31.3527H58.146V32.0927H55.1693V28.2899L58.1026 28.2868Z" fill="white"/>
<path d="M61.919 28.2766C62.2147 28.2569 62.5116 28.2892 62.7959 28.372C62.9724 28.45 63.1195 28.5807 63.2167 28.7458C63.3138 28.9108 63.3561 29.1019 63.3374 29.2919C63.3459 29.4555 63.3084 29.6182 63.2292 29.7621C63.1278 29.8896 63 29.9942 62.8543 30.0689C62.7087 30.1436 62.5486 30.1868 62.3847 30.1955V30.2167C63.1314 30.2432 63.1907 30.5601 63.2665 31.1046C63.3019 31.4388 63.3652 31.7695 63.456 32.0933H62.2814C62.2359 31.9236 62.205 31.7503 62.1891 31.5754L62.1402 31.11C62.0968 30.7032 61.9997 30.6024 61.5994 30.6024H61.1447V32.0927H60.0569V28.276L61.919 28.2766ZM61.1447 29.9154H61.7399C61.8222 29.9259 61.9058 29.917 61.9839 29.8894C62.0619 29.8618 62.1323 29.8163 62.1891 29.7567C62.2551 29.6679 62.2895 29.5601 62.2869 29.45C62.2869 29.138 62.1243 28.9798 61.6208 28.9798H61.1447V29.9154Z" fill="white"/>
<path d="M8.16995 5.27454C8.34508 5.52252 8.46428 5.80473 8.5195 6.10212C8.5305 6.18602 8.54578 6.26812 8.56351 6.3484H9.18623C9.1555 6.24278 9.13283 6.13503 9.11839 6.02606C9.05177 5.6387 8.90036 5.27036 8.67473 4.94677C8.33984 4.44334 7.99028 3.9387 7.65234 3.45096C7.24534 2.86423 6.82489 2.25758 6.43011 1.65093L6.38795 1.58635C6.20095 1.30445 6.08545 1.09982 6.18506 0.842066C6.20461 0.790153 6.34762 0.726774 6.91839 0.721341H6.98623C10.1163 0.66641 13.2287 0.65313 16.126 0.647094C18.2038 0.643069 20.2816 0.641453 22.3593 0.642258C26.8345 0.642258 31.4649 0.642263 36.014 0.600008H36.0684C36.5061 0.562149 36.9462 0.636742 37.346 0.816552C37.7459 0.996362 38.0918 1.27527 38.3503 1.62618L38.4035 1.69379C39.0818 2.55276 39.5713 3.1733 39.2364 4.31839C39.1118 4.99859 39.1669 5.69903 39.3965 6.35202H40.0186C40.0088 6.31399 39.9997 6.27476 39.9899 6.23673C39.7897 5.67564 39.7302 5.07499 39.8163 4.4862C40.2374 3.04835 39.578 2.21292 38.8795 1.32859L38.8263 1.26099C38.5115 0.838675 38.0938 0.501692 37.612 0.281263C37.1303 0.0608337 36.5999 -0.0359116 36.0702 -4.57047e-06H36.0091C31.4606 0.0404388 26.8339 0.0410469 22.3599 0.0422541C20.2822 0.0422541 18.2034 0.0438612 16.1236 0.0470806C13.2238 0.0531169 10.109 0.0663975 6.97461 0.121328H6.90862C6.47106 0.127968 5.80862 0.137623 5.621 0.629584C5.55226 0.848148 5.54024 1.08028 5.58606 1.30463C5.63187 1.52898 5.73404 1.73835 5.88317 1.91351L5.92289 1.97388C6.32256 2.58777 6.74606 3.19804 7.15489 3.7884C7.49039 4.27432 7.83689 4.77594 8.16995 5.27454Z" fill="#CF0A2C"/>
<path d="M58.0311 34.8018V34.7747C57.9638 34.4171 57.8101 34.0809 57.5831 33.7946C57.356 33.5084 57.0624 33.2805 56.727 33.1304V33.8445C56.9078 33.9468 57.0641 34.0865 57.1852 34.254C57.3063 34.4216 57.3893 34.613 57.4286 34.8151C57.4212 35.1741 57.3038 35.5225 57.0918 35.8141C56.9516 36.002 56.8502 36.2154 56.7936 36.442C56.737 36.6687 56.7262 36.9041 56.7618 37.1349C56.7877 37.2626 56.786 37.3943 56.757 37.5214C56.7279 37.6485 56.6721 37.7681 56.5932 37.8725C56.5409 37.9375 56.475 37.9904 56.4 38.0277C56.3249 38.065 56.2426 38.0858 56.1587 38.0886C55.7823 38.1163 55.4225 38.2524 55.1237 38.4801C54.8248 38.7078 54.6002 39.017 54.4775 39.3695C54.4201 39.477 54.3644 39.5814 54.3058 39.6762C53.9228 40.3365 53.6063 41.0324 53.361 41.7539C53.207 42.1613 53.0481 42.5827 52.8672 42.9774C52.83 43.0686 52.7661 43.1467 52.6837 43.2019C52.6013 43.257 52.5041 43.2867 52.4046 43.2871C51.1964 43.3583 50.2413 43.4018 49.2146 43.4018C48.6261 43.4018 48.0535 43.3873 47.4882 43.3583C47.0977 43.3119 47.0782 43.2702 47.0195 43.1447C46.9889 43.0807 46.9327 42.9605 47.1527 42.6786C47.42 42.3541 47.7102 42.0487 48.0211 41.7647C48.2802 41.5166 48.5473 41.2601 48.7887 40.98C48.9256 40.8315 49.0253 40.6533 49.0797 40.4597C49.1342 40.2662 49.1418 40.0627 49.1022 39.8657C49.0411 39.617 48.8204 39.1878 48.0168 39.107H47.6929C39.1802 39.107 30.5256 39.1275 22.1558 39.148L16.2892 39.1619H16.2281C15.6127 39.1619 15.2295 39.1353 15.0932 39.0001C14.9569 38.8649 14.9282 38.4798 14.9313 37.8248C14.937 36.6224 14.9429 35.4236 14.949 34.2284H14.3452C14.3391 35.4232 14.3332 36.621 14.3275 37.8218C14.3238 38.5818 14.3458 39.1039 14.6654 39.4214C14.9851 39.739 15.4898 39.7595 16.2287 39.7595L22.1564 39.7456C30.5256 39.7251 39.1796 39.7045 47.6917 39.7045H47.9686C48.1562 39.7251 48.4611 39.7921 48.5131 40.0064C48.5291 40.1117 48.521 40.2192 48.4892 40.321C48.4575 40.4227 48.403 40.5162 48.3297 40.5943C48.1073 40.8527 47.861 41.0881 47.6007 41.338C47.2688 41.6416 46.9592 41.9682 46.6742 42.3152C46.5357 42.4557 46.4424 42.6334 46.4061 42.8262C46.3698 43.0189 46.392 43.2179 46.4701 43.3982C46.6192 43.7157 46.7989 43.8811 47.4351 43.9547C48.0327 43.9855 48.6145 44.0006 49.2134 44.0006C50.3684 44.0006 51.4403 43.9432 52.4394 43.8847C52.6491 43.8783 52.8525 43.8129 53.0258 43.6961C53.199 43.5793 53.3348 43.4161 53.4172 43.2255C53.6067 42.8121 53.7692 42.3804 53.9269 41.9639C54.1584 41.2792 54.4572 40.6185 54.8191 39.9913C54.8851 39.8862 54.9474 39.7697 55.0116 39.6496C55.2805 39.1468 55.5121 38.7122 56.1813 38.6868C56.3508 38.681 56.517 38.6391 56.6686 38.5641C56.8203 38.4891 56.9538 38.3827 57.0601 38.2522C57.1933 38.0825 57.2887 37.8869 57.34 37.6782C57.3913 37.4695 57.3973 37.2525 57.3577 37.0413C57.3339 36.8794 57.3439 36.7145 57.3871 36.5566C57.4303 36.3987 57.5057 36.2512 57.6088 36.1232C57.8806 35.7346 58.0277 35.2742 58.0311 34.8018Z" fill="#CF0A2C"/>
</g>
<defs>
<clipPath id="clip0_127_4946">
<rect width="63.5556" height="44" fill="white"/>
</clipPath>
</defs>
</svg>
